<svg width="25" height="25" viewBox="0 0 25 25" fill="none" xmlns="http://www.w3.org/2000/svg">
<path d="M6.01455 2L3.00781 6.00898V20.0404C3.00781 20.572 3.219 21.0819 3.59491 21.4578C3.97083 21.8337 4.48068 22.0449 5.0123 22.0449H19.0437C19.5754 22.0449 20.0852 21.8337 20.4611 21.4578C20.837 21.0819 21.0482 20.572 21.0482 20.0404V6.00898L18.0415 2H6.01455Z" stroke="white" stroke-width="2.00449" stroke-linecap="round" stroke-linejoin="round"/>
<path d="M3.00781 6.00781H21.0482" stroke="white" stroke-width="2.00449" stroke-linecap="round" stroke-linejoin="round"/>
<path d="M16.0336 10.0156C16.0336 11.0789 15.6112 12.0986 14.8594 12.8504C14.1076 13.6022 13.0879 14.0246 12.0246 14.0246C10.9614 14.0246 9.94166 13.6022 9.18983 12.8504C8.438 12.0986 8.01563 11.0789 8.01562 10.0156" stroke="white" stroke-width="2.00449" stroke-linecap="round" stroke-linejoin="round"/>
</svg>
