<svg width="26" height="26" viewBox="0 0 26 26" fill="none" xmlns="http://www.w3.org/2000/svg">
<g clip-path="url(#clip0_2_443)">
<path d="M26 13.0703C26 19.5584 21.2398 24.9371 15.0258 25.9132V16.8533H18.0472L18.6225 13.105H15.0258V10.6729C15.0258 9.64698 15.5285 8.64815 17.1383 8.64815H18.7731V5.45665C18.7731 5.45665 17.2889 5.20315 15.8708 5.20315C12.909 5.20315 10.9742 6.99823 10.9742 10.2471V13.1039H7.68192V16.8522H10.9742V25.9121C4.76125 24.935 0 19.5573 0 13.0703C0 5.89106 5.82075 0.0703125 13 0.0703125C20.1792 0.0703125 26 5.88998 26 13.0703Z" fill="white"/>
</g>
<defs>
<clipPath id="clip0_2_443">
<rect width="26" height="26" fill="white"/>
</clipPath>
</defs>
</svg>
