<svg width="26" height="26" viewBox="0 0 26 26" fill="none" xmlns="http://www.w3.org/2000/svg">
<g clip-path="url(#clip0_2_446)">
<path d="M13 2.34217C16.471 2.34217 16.8827 2.35517 18.2531 2.418C19.6701 2.483 21.1293 2.80583 22.1617 3.83825C23.2039 4.88042 23.517 6.32558 23.582 7.74692C23.6448 9.11733 23.6578 9.529 23.6578 13C23.6578 16.471 23.6448 16.8827 23.582 18.2531C23.5181 19.6625 23.1877 21.1358 22.1617 22.1617C21.1196 23.2039 19.6755 23.517 18.2531 23.582C16.8827 23.6448 16.471 23.6578 13 23.6578C9.529 23.6578 9.11733 23.6448 7.74692 23.582C6.34833 23.5181 4.8555 23.1801 3.83825 22.1617C2.8015 21.125 2.483 19.6658 2.418 18.2531C2.35517 16.8827 2.34217 16.471 2.34217 13C2.34217 9.529 2.35517 9.11733 2.418 7.74692C2.48192 6.34292 2.81558 4.86092 3.83825 3.83825C4.87825 2.79825 6.32883 2.483 7.74692 2.418C9.11733 2.35517 9.529 2.34217 13 2.34217ZM13 0C9.46942 0 9.02633 0.0151667 7.63967 0.078C5.63008 0.170083 3.63458 0.729083 2.18183 2.18183C0.723667 3.64 0.170083 5.63117 0.078 7.63967C0.0151667 9.02633 0 9.46942 0 13C0 16.5306 0.0151667 16.9737 0.078 18.3603C0.170083 20.3677 0.73125 22.3687 2.18183 23.8182C3.63892 25.2752 5.63333 25.8299 7.63967 25.922C9.02633 25.9848 9.46942 26 13 26C16.5306 26 16.9737 25.9848 18.3603 25.922C20.3688 25.8299 22.3665 25.2698 23.8182 23.8182C25.2774 22.3589 25.8299 20.3688 25.922 18.3603C25.9848 16.9737 26 16.5306 26 13C26 9.46942 25.9848 9.02633 25.922 7.63967C25.8299 5.63008 25.2698 3.6335 23.8182 2.18183C22.3632 0.726916 20.3634 0.169 18.3603 0.078C16.9737 0.0151667 16.5306 0 13 0Z" fill="white"/>
<path d="M13.0036 6.32031C9.31704 6.32031 6.32812 9.30923 6.32812 12.9958C6.32812 16.6824 9.31704 19.6713 13.0036 19.6713C16.6902 19.6713 19.6791 16.6824 19.6791 12.9958C19.6791 9.30923 16.6902 6.32031 13.0036 6.32031ZM13.0036 17.3291C10.6105 17.3291 8.67029 15.3889 8.67029 12.9958C8.67029 10.6027 10.6105 8.66248 13.0036 8.66248C15.3967 8.66248 17.337 10.6027 17.337 12.9958C17.337 15.3889 15.3967 17.3291 13.0036 17.3291Z" fill="white"/>
<path d="M19.9428 7.62C20.8044 7.62 21.5028 6.92156 21.5028 6.06C21.5028 5.19844 20.8044 4.5 19.9428 4.5C19.0812 4.5 18.3828 5.19844 18.3828 6.06C18.3828 6.92156 19.0812 7.62 19.9428 7.62Z" fill="white"/>
</g>
<defs>
<clipPath id="clip0_2_446">
<rect width="26" height="26" fill="white"/>
</clipPath>
</defs>
</svg>
