<svg width="26" height="26" viewBox="0 0 26 26" fill="none" xmlns="http://www.w3.org/2000/svg">
<g clip-path="url(#clip0_2_451)">
<path d="M22.1495 22.1497H18.2976V16.1175C18.2976 14.679 18.272 12.828 16.2941 12.828C14.2881 12.828 13.9807 14.3946 13.9807 16.0138V22.1497H10.13V9.74463H13.8282V11.4394H13.8795C14.634 10.1507 16.0354 9.38083 17.5277 9.43591C21.4322 9.43591 22.1508 12.0043 22.1508 15.3438L22.1495 22.1497ZM5.78365 8.04861C4.54878 8.04861 3.54833 7.04816 3.54833 5.81329C3.54833 4.57842 4.54878 3.57797 5.78365 3.57797C7.01852 3.57797 8.01897 4.57842 8.01897 5.81329C8.01897 7.04816 7.01852 8.04861 5.78365 8.04861ZM7.70897 22.1497H3.8532V9.74463H7.70897V22.1497ZM24.0697 0.00145596H1.91764C0.87107 -0.0100729 0.0128099 0.828973 0 1.87554V24.1186C0.0128099 25.1664 0.87107 26.0055 1.91764 25.9939H24.0697C25.1188 26.0067 25.9809 25.1677 25.995 24.1186V1.87426C25.9797 0.825129 25.1176 -0.0139159 24.0697 0.000174913" fill="white"/>
</g>
<defs>
<clipPath id="clip0_2_451">
<rect width="26" height="26" fill="white"/>
</clipPath>
</defs>
</svg>
