<svg width="27" height="23" viewBox="0 0 27 23" fill="none" xmlns="http://www.w3.org/2000/svg">
<path d="M3.3027 10.9695H1.69897V8.68857H5.58362C5.58362 9.94849 4.56193 10.9695 3.3027 10.9695Z" fill="#FE8450"/>
<path d="M2.47757 8.68857H1.69897V17.4177H2.47757V8.68857Z" fill="#FE8450"/>
<path d="M1.23839 18.6546C1.92234 18.6546 2.47679 18.1002 2.47679 17.4163C2.47679 16.7323 1.92234 16.1779 1.23839 16.1779C0.55445 16.1779 0 16.7323 0 17.4163C0 18.1002 0.55445 18.6546 1.23839 18.6546Z" fill="#FE8450"/>
<path d="M17.2468 10.8667H9.93176V11.73H17.2468V10.8667Z" fill="#68AD7E"/>
<path d="M17.2296 10.8667H16.4385V19.7369H17.2296V10.8667Z" fill="#68AD7E"/>
<path d="M17.2468 19.7262C17.2468 20.4958 16.6231 21.1195 15.8535 21.1195C15.0839 21.1195 14.4602 20.4958 14.4602 19.7262C14.4602 18.9566 15.0839 18.3329 15.8535 18.3329C16.6231 18.3322 17.2468 18.9559 17.2468 19.7262Z" fill="#68AD7E"/>
<path d="M10.8083 10.8667H9.93176V20.6884H10.8083V10.8667Z" fill="#68AD7E"/>
<path d="M10.8101 20.6739C10.8101 21.4434 10.1864 22.0672 9.41682 22.0672C8.64726 22.0672 8.02356 21.4434 8.02356 20.6739C8.02356 19.9043 8.64726 19.2806 9.41682 19.2806C10.1864 19.2799 10.8101 19.9043 10.8101 20.6739Z" fill="#68AD7E"/>
<path d="M26.9372 0H19.661V0.956401H26.9372V0Z" fill="#52489C"/>
<path d="M26.9372 1.39845H19.661V2.3486H26.9372V1.39845Z" fill="#52489C"/>
<path d="M26.9329 0H26.0557V7.27615H26.9329V0Z" fill="#52489C"/>
<path d="M20.5382 0H19.661V7.27615H20.5382V0Z" fill="#52489C"/>
<path d="M20.5401 7.30547C20.5401 8.15839 19.8491 8.84946 18.9961 8.84946C18.1432 8.84946 17.4521 8.15839 17.4521 7.30547C17.4521 6.45256 18.1432 5.76147 18.9961 5.76147C19.8491 5.76147 20.5401 6.45256 20.5401 7.30547Z" fill="#52489C"/>
<path d="M26.9386 7.30535C26.9386 8.15826 26.2475 8.84934 25.3946 8.84934C24.5417 8.84934 23.8506 8.15826 23.8506 7.30535C23.8506 6.45244 24.5417 5.76135 25.3946 5.76135C26.2475 5.76135 26.9386 6.45244 26.9386 7.30535Z" fill="#52489C"/>
</svg>
